<?xml version="1.0" encoding="utf-8"?>
<!-- Generator: Adobe Illustrator 15.0.0, SVG Export Plug-In . SVG Version: 6.00 Build 0)  -->
<!DOCTYPE svg PUBLIC "-//W3C//DTD SVG 1.1//EN" "http://www.w3.org/Graphics/SVG/1.1/DTD/svg11.dtd">
<svg version="1.1" id="Layer_1" xmlns="http://www.w3.org/2000/svg" xmlns:xlink="http://www.w3.org/1999/xlink" x="0px" y="0px"
	 width="113.391px" height="28.35px" viewBox="0 0 113.391 28.35" enable-background="new 0 0 113.391 28.35" xml:space="preserve">
<g>
	<path d="M43.595,3.576c-2.813,0-5.19,0.993-7.135,2.981c-0.486,0.485-0.942,1.037-1.369,1.655l4.726,2.121
		c0.209-0.647,0.598-1.167,1.172-1.558s1.244-0.606,2.01-0.651V6.227h1.438v1.899c1.131,0.061,2.163,0.441,3.092,1.148l-1.613,1.655
		c-0.691-0.485-1.399-0.729-2.121-0.729c-0.383,0-0.725,0.073-1.026,0.221c-0.303,0.147-0.453,0.397-0.453,0.751
		c0,0.104,0.037,0.207,0.11,0.31l1.566,0.707l1.082,0.485l1.988,0.884l6.34,2.826c0.207-0.867,0.309-1.752,0.309-2.649
		c0-2.842-0.985-5.233-2.958-7.178C48.791,4.57,46.406,3.576,43.595,3.576 M33.988,10.401c-0.369,1.017-0.553,2.128-0.553,3.335
		c0,2.739,1,5.109,3.002,7.112c2.019,1.986,4.402,2.981,7.156,2.981c2.782,0,5.184-1.01,7.199-3.026
		c0.723-0.691,1.288-1.413,1.7-2.165l-4.66-2.075c-0.162,0.779-0.555,1.417-1.182,1.91c-0.625,0.493-1.364,0.776-2.217,0.852v1.898
		h-1.438v-1.898c-1.37-0.015-2.621-0.509-3.756-1.48l1.703-1.723c0.808,0.751,1.729,1.127,2.76,1.127
		c0.426,0,0.792-0.097,1.092-0.287c0.304-0.19,0.454-0.508,0.454-0.95c0-0.309-0.109-0.559-0.331-0.751l-1.192-0.508L42.27,14.09
		l-1.966-0.861L33.988,10.401z M43.55,1.368c3.475,0,6.405,1.192,8.79,3.577c2.4,2.386,3.603,5.314,3.603,8.79
		s-1.179,6.368-3.535,8.681c-2.502,2.459-5.453,3.688-8.856,3.688c-3.355,0-6.259-1.223-8.701-3.666
		c-2.43-2.431-3.646-5.33-3.646-8.702c0-3.386,1.216-6.316,3.646-8.79C37.234,2.562,40.134,1.368,43.55,1.368"/>
	<path d="M69.277,7.485c0-1.163,0.574-1.743,1.721-1.743c1.149,0,1.725,0.58,1.725,1.743c0,1.148-0.574,1.725-1.725,1.725
		C69.852,9.209,69.277,8.634,69.277,7.485 M74.334,10.667v5.058h-1.412v6.007h-3.844v-6.007h-1.414v-5.058
		c0-0.223,0.078-0.409,0.231-0.564c0.154-0.153,0.343-0.229,0.562-0.229h5.082c0.205,0,0.39,0.076,0.551,0.229
		C74.252,10.258,74.334,10.445,74.334,10.667 M71.021,3.599c-2.812,0-5.189,0.987-7.133,2.96c-2.021,2.062-3.027,4.454-3.027,7.178
		c0,2.739,1,5.11,3.004,7.112s4.389,3.004,7.156,3.004c2.753,0,5.153-1.008,7.201-3.025c1.942-1.869,2.915-4.232,2.915-7.091
		c0-2.812-0.987-5.204-2.961-7.178C76.204,4.586,73.818,3.599,71.021,3.599 M70.978,1.367c3.476,0,6.404,1.192,8.79,3.577
		c2.399,2.401,3.602,5.331,3.602,8.791c0,3.477-1.179,6.368-3.535,8.682c-2.502,2.46-5.455,3.688-8.855,3.688
		c-3.344,0-6.244-1.215-8.702-3.644c-2.43-2.433-3.646-5.338-3.646-8.727c0-3.386,1.216-6.315,3.646-8.791
		C64.662,2.561,67.561,1.367,70.978,1.367"/>
	<path d="M23.148,11.684l-1.635,0.86c-0.177-0.368-0.396-0.626-0.652-0.771c-0.258-0.147-0.504-0.222-0.739-0.222
		c-1.104,0-1.656,0.729-1.656,2.187c0,0.663,0.141,1.192,0.419,1.591c0.28,0.397,0.692,0.597,1.237,0.597
		c0.72,0,1.229-0.354,1.524-1.061l1.545,0.772c-0.338,0.604-0.795,1.078-1.369,1.425c-0.573,0.348-1.2,0.52-1.877,0.52
		c-1.119,0-2.014-0.338-2.686-1.017c-0.67-0.678-1.004-1.619-1.004-2.827c0-1.178,0.344-2.112,1.028-2.805
		c0.683-0.691,1.547-1.038,2.594-1.038C21.41,9.895,22.5,10.49,23.148,11.684 M16.014,11.684l-1.656,0.86
		c-0.178-0.368-0.396-0.626-0.653-0.771c-0.257-0.147-0.496-0.222-0.716-0.222c-1.106,0-1.657,0.729-1.657,2.187
		c0,0.663,0.141,1.192,0.419,1.591c0.279,0.397,0.693,0.597,1.238,0.597c0.721,0,1.228-0.354,1.523-1.061l1.523,0.772
		c-0.324,0.604-0.773,1.078-1.349,1.425c-0.575,0.348-1.207,0.52-1.898,0.52c-1.104,0-1.996-0.338-2.674-1.017
		c-0.676-0.678-1.014-1.619-1.014-2.827c0-1.178,0.34-2.112,1.024-2.805c0.687-0.691,1.55-1.038,2.597-1.038
		C14.255,9.895,15.352,10.49,16.014,11.684 M16.168,3.6c-2.827,0-5.205,0.986-7.134,2.96c-0.972,0.986-1.72,2.094-2.242,3.323
		c-0.521,1.229-0.784,2.516-0.784,3.854c0,1.325,0.263,2.604,0.784,3.832c0.522,1.229,1.271,2.327,2.242,3.291
		c0.971,0.966,2.069,1.702,3.29,2.21c1.222,0.508,2.505,0.762,3.844,0.762c1.326,0,2.609-0.258,3.855-0.772
		c1.244-0.517,2.365-1.26,3.367-2.23c1.93-1.886,2.894-4.248,2.894-7.091c0-1.369-0.251-2.664-0.751-3.887
		c-0.5-1.224-1.229-2.312-2.188-3.27C21.357,4.593,18.965,3.6,16.168,3.6 M16.124,1.368c3.46,0,6.405,1.207,8.834,3.622
		c1.165,1.163,2.048,2.492,2.651,3.986c0.603,1.494,0.906,3.081,0.906,4.76c0,1.692-0.3,3.28-0.896,4.761
		c-0.597,1.479-1.476,2.786-2.64,3.921c-1.207,1.191-2.576,2.104-4.107,2.738c-1.531,0.633-3.114,0.949-4.749,0.949
		c-1.634,0-3.199-0.312-4.693-0.938c-1.494-0.625-2.836-1.531-4.021-2.716c-1.186-1.186-2.088-2.522-2.705-4.01
		c-0.618-1.486-0.928-3.057-0.928-4.705c0-1.634,0.312-3.205,0.938-4.716c0.625-1.51,1.535-2.859,2.729-4.054
		C9.8,2.568,12.693,1.368,16.124,1.368"/>
	<path d="M103.109,16.918h-8.99v-2.12h8.99V16.918z M103.109,12.942h-8.99v-2.121h8.99V12.942z M98.449,3.6
		c-2.814,0-5.191,0.992-7.135,2.981c-2.019,2.046-3.025,4.432-3.025,7.155c0,2.755,1,5.125,3.002,7.112
		c2.004,2.003,4.391,3.005,7.158,3.005c2.754,0,5.153-1.01,7.201-3.026c1.942-1.886,2.914-4.248,2.914-7.091
		c0-2.826-0.986-5.213-2.959-7.155C103.646,4.592,101.262,3.6,98.449,3.6 M98.404,1.368c3.46,0,6.392,1.199,8.791,3.6
		c2.4,2.387,3.601,5.31,3.601,8.77c0,3.462-1.179,6.361-3.532,8.703c-2.49,2.443-5.442,3.666-8.858,3.666
		c-3.343,0-6.244-1.214-8.703-3.645c-2.429-2.43-3.644-5.338-3.644-8.726c0-3.371,1.215-6.295,3.644-8.77
		C92.103,2.568,95.002,1.368,98.404,1.368"/>
</g>
</svg>
