<?xml version="1.0" encoding="utf-8"?>
<!-- Generator: Adobe Illustrator 15.0.0, SVG Export Plug-In . SVG Version: 6.00 Build 0)  -->
<!DOCTYPE svg PUBLIC "-//W3C//DTD SVG 1.1//EN" "http://www.w3.org/Graphics/SVG/1.1/DTD/svg11.dtd">
<svg version="1.1" id="Layer_1" xmlns="http://www.w3.org/2000/svg" xmlns:xlink="http://www.w3.org/1999/xlink" x="0px" y="0px"
	 width="28.347px" height="28.35px" viewBox="0 0 28.347 28.35" enable-background="new 0 0 28.347 28.35" xml:space="preserve">
<g>
	<g>
		<path d="M23.337,0.163H11.341c-1.655,0-3,1.346-3,3v5.875h2V3.163c0-0.551,0.448-1,1-1h10.207v2.896c0,0.827,0.672,1.5,1.5,1.5
			h2.875v15.688c0,0.551-0.449,1-1,1H13.896l-1.506,2h12.532c1.654,0,3-1.346,3-3V4.749L23.337,0.163z M23.548,3.202l1.355,1.357
			h-1.355V3.202z"/>
	</g>
	<polygon points="10.382,18.867 10.382,11.246 4.382,11.246 4.382,18.867 0.423,18.867 7.438,28.184 14.452,18.867 	"/>
</g>
</svg>
