<?xml version="1.0" encoding="utf-8"?>
<!-- Generator: Adobe Illustrator 15.0.0, SVG Export Plug-In . SVG Version: 6.00 Build 0)  -->
<!DOCTYPE svg PUBLIC "-//W3C//DTD SVG 1.1//EN" "http://www.w3.org/Graphics/SVG/1.1/DTD/svg11.dtd">
<svg version="1.1" id="Layer_1" xmlns="http://www.w3.org/2000/svg" xmlns:xlink="http://www.w3.org/1999/xlink" x="0px" y="0px"
	 width="53.857px" height="42.52px" viewBox="0 0 53.857 42.52" enable-background="new 0 0 53.857 42.52" xml:space="preserve">
<g>
	<polygon points="9.537,27.004 13.4,24.359 13.4,16.296 13.4,16.295 9.537,13.65 	"/>
	<polygon points="25.418,1.792 25.418,23.707 30.72,20.077 30.72,11.846 43.106,20.327 25.418,32.438 25.418,32.439 25.418,38.863 
		52.49,20.327 	"/>
	<polygon points="24.467,15.143 24.467,8.717 14.352,1.792 14.352,8.217 14.352,8.219 	"/>
	<polygon points="41.423,20.327 31.671,13.65 31.671,20.578 19.652,28.809 19.652,20.578 14.352,16.947 14.352,16.947 
		14.352,38.863 	"/>
	<polygon points="20.604,20.077 20.604,27.004 24.467,24.359 24.467,16.296 24.467,16.295 3.284,1.792 3.284,38.863 13.4,31.938 
		13.4,31.937 13.4,25.512 8.586,28.809 8.586,11.846 	"/>
</g>
</svg>
