<?xml version="1.0" encoding="utf-8"?>
<!-- Generator: Adobe Illustrator 15.0.0, SVG Export Plug-In . SVG Version: 6.00 Build 0)  -->
<!DOCTYPE svg PUBLIC "-//W3C//DTD SVG 1.1//EN" "http://www.w3.org/Graphics/SVG/1.1/DTD/svg11.dtd">
<svg version="1.1" id="Layer_1" xmlns="http://www.w3.org/2000/svg" xmlns:xlink="http://www.w3.org/1999/xlink" x="0px" y="0px"
	 width="28.347px" height="22.677px" viewBox="0 0 28.347 22.677" enable-background="new 0 0 28.347 22.677" xml:space="preserve">
<g>
	<g>
		<g>
			<path d="M24.711,18.001c0,0.552-0.448,1-1,1H4.635c-0.552,0-1-0.448-1-1V4.417c0-0.552,0.448-1,1-1h7.732l-2-2H4.635
				c-1.654,0-3,1.346-3,3v13.583c0,1.654,1.346,3,3,3h19.076c1.654,0,3-1.346,3-3v-0.24l-2-2V18.001z"/>
		</g>
	</g>
	<polygon points="26.632,1.672 15.084,3.301 17.962,6.178 12.573,11.568 16.815,15.811 22.204,10.42 25.004,13.22 	"/>
</g>
</svg>
