<?xml version="1.0" encoding="utf-8"?>
<!-- Generator: Adobe Illustrator 15.0.0, SVG Export Plug-In . SVG Version: 6.00 Build 0)  -->
<!DOCTYPE svg PUBLIC "-//W3C//DTD SVG 1.1//EN" "http://www.w3.org/Graphics/SVG/1.1/DTD/svg11.dtd">
<svg version="1.1" id="Layer_1" xmlns="http://www.w3.org/2000/svg" xmlns:xlink="http://www.w3.org/1999/xlink" x="0px" y="0px"
	 width="34.016px" height="28.35px" viewBox="0 0 34.016 28.35" enable-background="new 0 0 34.016 28.35" xml:space="preserve">
<path fill="#C4C2B7" d="M18.968,14.173l7.016,9.316l7.013-9.316h-4.215v0c0-7.654-6.228-13.881-13.882-13.881
	c-7.653,0-13.88,6.227-13.88,13.881c0,7.655,6.227,13.882,13.88,13.882c3.001,0,5.859-0.943,8.266-2.729l-3.336-4.498
	c-1.435,1.064-3.14,1.627-4.93,1.627c-4.565,0-8.28-3.716-8.28-8.283c0-4.566,3.715-8.281,8.28-8.281
	c4.566,0,8.282,3.715,8.282,8.281v0H18.968z"/>
</svg>
