<?xml version="1.0" encoding="utf-8"?>
<!-- Generator: Adobe Illustrator 15.0.2, SVG Export Plug-In . SVG Version: 6.00 Build 0)  -->
<!DOCTYPE svg PUBLIC "-//W3C//DTD SVG 1.1//EN" "http://www.w3.org/Graphics/SVG/1.1/DTD/svg11.dtd">
<svg version="1.1" id="Layer_1" xmlns="http://www.w3.org/2000/svg" xmlns:xlink="http://www.w3.org/1999/xlink" x="0px" y="0px"
	 width="26px" height="26px" viewBox="0 0 26 26" enable-background="new 0 0 26 26" xml:space="preserve">
<g>
	<path fill="#4DCDD8" d="M15.485,10.634c1.602,0,2.961-1.321,2.961-2.925c0-1.602-1.359-2.959-2.961-2.959S12.56,6.108,12.56,7.709
		c0,0.152,0.022,0.299,0.046,0.445l-3.53,2.354c-0.45-0.278-0.97-0.449-1.523-0.449c-1.602,0-2.926,1.357-2.926,2.959
		c0,1.603,1.324,2.925,2.926,2.925c0.628,0,1.214-0.209,1.7-0.551l3.378,2.314c-0.044,0.201-0.07,0.406-0.07,0.619
		c0,1.604,1.324,2.924,2.926,2.924s2.961-1.32,2.961-2.924c0-1.602-1.359-2.959-2.961-2.959c-0.674,0-1.29,0.25-1.787,0.646
		l-3.296-2.257c0.064-0.237,0.11-0.482,0.11-0.738c0-0.331-0.07-0.646-0.176-0.946l3.247-2.165
		C14.098,10.353,14.759,10.634,15.485,10.634z"/>
	<path fill="#4DCDD8" d="M13.002,0C5.832,0,0,5.833,0,13c0,7.168,5.832,13,13.002,13C20.17,26,26,20.168,26,13
		C26,5.833,20.17,0,13.002,0z M13.002,23.672C7.115,23.672,2.328,18.885,2.328,13c0-5.886,4.787-10.673,10.674-10.673
		c5.885,0,10.672,4.787,10.672,10.673C23.674,18.885,18.887,23.672,13.002,23.672z"/>
</g>
</svg>
