<?xml version="1.0" encoding="utf-8"?>
<!-- Generator: Adobe Illustrator 15.0.0, SVG Export Plug-In . SVG Version: 6.00 Build 0)  -->
<!DOCTYPE svg PUBLIC "-//W3C//DTD SVG 1.1//EN" "http://www.w3.org/Graphics/SVG/1.1/DTD/svg11.dtd">
<svg version="1.1" id="Layer_1" xmlns="http://www.w3.org/2000/svg" xmlns:xlink="http://www.w3.org/1999/xlink" x="0px" y="0px"
	 width="42.52px" height="42.52px" viewBox="0 0 42.52 42.52" enable-background="new 0 0 42.52 42.52" xml:space="preserve">
<g>
	<path d="M6.931,13.401c0,0.696-0.57,1.266-1.268,1.266H3.975c-0.696,0-1.267-0.569-1.267-1.266V5.637
		c0-0.696,0.57-1.266,1.267-1.266h1.688c0.697,0,1.268,0.569,1.268,1.266V13.401z"/>
	<path d="M6.931,25.106c0,0.697-0.57,1.267-1.268,1.267H3.975c-0.696,0-1.267-0.569-1.267-1.267v-7.762
		c0-0.697,0.57-1.268,1.267-1.268h1.688c0.697,0,1.268,0.57,1.268,1.268V25.106z"/>
	<path d="M6.931,36.882c0,0.696-0.57,1.267-1.268,1.267H3.975c-0.696,0-1.267-0.57-1.267-1.267V29.12
		c0-0.696,0.57-1.267,1.267-1.267h1.688c0.697,0,1.268,0.57,1.268,1.267V36.882z"/>
	<path d="M39.811,13.401c0,0.696-0.569,1.266-1.267,1.266h-1.689c-0.696,0-1.266-0.569-1.266-1.266V5.637
		c0-0.696,0.569-1.266,1.266-1.266h1.689c0.697,0,1.267,0.569,1.267,1.266V13.401z"/>
	<path d="M39.811,25.106c0,0.697-0.569,1.267-1.267,1.267h-1.689c-0.696,0-1.266-0.569-1.266-1.267v-7.762
		c0-0.697,0.569-1.268,1.266-1.268h1.689c0.697,0,1.267,0.57,1.267,1.268V25.106z"/>
	<path d="M39.811,36.882c0,0.696-0.569,1.267-1.267,1.267h-1.689c-0.696,0-1.266-0.57-1.266-1.267V29.12
		c0-0.696,0.569-1.267,1.266-1.267h1.689c0.697,0,1.267,0.57,1.267,1.267V36.882z"/>
	<path fill="none" stroke="#000000" stroke-width="3" stroke-miterlimit="10" d="M5.031,21.226c0,0,36.1,0,32.67,0"/>
	<path fill="none" stroke="#000000" stroke-width="3" stroke-miterlimit="10" d="M38.544,21.206
		c-12.508,0-14.408-11.777-31.719-11.777"/>
	<path fill="none" stroke="#000000" stroke-width="3" stroke-miterlimit="10" d="M38.123,21.569
		c-12.508,0-14.408,11.776-31.72,11.776"/>
</g>
</svg>
